<?xml version="1.0" encoding="UTF-8"?>
<svg xmlns="http://www.w3.org/2000/svg" xmlns:xlink="http://www.w3.org/1999/xlink" width="60px" height="33px" viewBox="0 0 60 33" version="1.1">
<g id="surface1">
<path style=" stroke:none;fill-rule:nonzero;fill:rgb(32.156863%,32.156863%,40.784314%);fill-opacity:1;" d="M 21.839844 18.945312 L 10.144531 18.945312 C 10.714844 21.074219 12.460938 22.257812 14.847656 22.257812 C 16.664062 22.257812 18.136719 21.617188 19.480469 20.570312 L 21.359375 23.679688 C 19.480469 25.265625 17.257812 26.183594 14.707031 26.183594 C 9.4375 26.183594 5.609375 22.359375 5.609375 17.421875 C 5.609375 12.484375 9.40625 8.660156 14.308594 8.660156 C 18.980469 8.660156 22.136719 12.109375 22.136719 16.441406 C 22.136719 17.390625 21.972656 18.371094 21.839844 18.945312 Z M 10.144531 15.734375 L 17.738281 15.734375 C 17.707031 13.605469 16.0625 12.347656 14.144531 12.347656 C 12.226562 12.347656 10.683594 13.632812 10.144531 15.734375 Z M 10.144531 15.734375 "/>
<path style=" stroke:none;fill-rule:nonzero;fill:rgb(32.156863%,32.156863%,40.784314%);fill-opacity:1;" d="M 40.683594 0.414062 L 40.664062 25.78125 L 36.5 25.777344 L 36.5 23.679688 C 35.355469 25.265625 33.476562 26.179688 31.160156 26.179688 C 26.457031 26.171875 23.101562 22.453125 23.101562 17.410156 C 23.105469 12.371094 26.464844 8.65625 31.167969 8.65625 C 33.25 8.65625 34.996094 9.367188 36.136719 10.65625 L 36.148438 0.40625 Z M 36.199219 17.425781 C 36.199219 14.246094 34.085938 12.792969 32.003906 12.789062 C 29.652344 12.789062 27.703125 14.542969 27.703125 17.386719 C 27.703125 20.226562 29.613281 22.019531 32 22.023438 C 34.082031 22.023438 36.199219 20.640625 36.199219 17.425781 Z M 36.199219 17.425781 "/>
<path style=" stroke:none;fill-rule:nonzero;fill:rgb(32.156863%,32.156863%,40.784314%);fill-opacity:1;" d="M 59.660156 9.117188 L 59.660156 23.996094 C 59.660156 29.644531 56.0625 32.351562 51.058594 32.351562 C 47.433594 32.351562 44.773438 30.929688 42.894531 29.242188 L 45.28125 26.0625 C 46.925781 27.347656 48.539062 28.226562 50.691406 28.226562 C 53.242188 28.226562 55.125 26.976562 55.125 24.269531 L 55.125 23.359375 C 53.949219 24.644531 52.140625 25.351562 50.058594 25.351562 C 45.488281 25.351562 42.097656 22.007812 42.097656 17.03125 C 42.097656 11.992188 45.519531 8.746094 50.058594 8.746094 C 52.476562 8.746094 54.355469 9.625 55.5 11.210938 L 55.5 9.117188 Z M 55.191406 16.960938 C 55.191406 13.882812 53.078125 12.632812 50.996094 12.632812 C 48.640625 12.632812 46.695312 14.222656 46.695312 17 C 46.695312 19.769531 48.679688 21.496094 50.996094 21.496094 C 53.109375 21.496094 55.191406 20.039062 55.191406 16.960938 Z M 55.191406 16.960938 "/>
<path style=" stroke:none;fill-rule:nonzero;fill:rgb(32.156863%,32.156863%,40.784314%);fill-opacity:1;" d="M 4.835938 23.378906 C 4.835938 24.625 3.832031 25.636719 2.59375 25.636719 C 1.355469 25.636719 0.351562 24.625 0.351562 23.378906 C 0.351562 22.132812 1.355469 21.121094 2.59375 21.121094 C 3.832031 21.121094 4.835938 22.132812 4.835938 23.378906 Z M 4.835938 23.378906 "/>
</g>
</svg>
